<svg width="1280" height="520" viewBox="0 0 1280 520" fill="none" xmlns="http://www.w3.org/2000/svg">
  <defs>
    <linearGradient id="bg" x1="0" y1="0" x2="1280" y2="520" gradientUnits="userSpaceOnUse">
      <stop offset="0" stop-color="#F8FBFF"/>
      <stop offset="0.48" stop-color="#EFF6FF"/>
      <stop offset="1" stop-color="#F4F7FB"/>
    </linearGradient>
    <linearGradient id="primary" x1="168" y1="92" x2="1018" y2="455" gradientUnits="userSpaceOnUse">
      <stop offset="0" stop-color="#1677FF"/>
      <stop offset="1" stop-color="#0EA5E9"/>
    </linearGradient>
    <linearGradient id="card" x1="646" y1="103" x2="1057" y2="425" gradientUnits="userSpaceOnUse">
      <stop offset="0" stop-color="#FFFFFF"/>
      <stop offset="1" stop-color="#F8FAFC"/>
    </linearGradient>
    <filter id="shadow" x="34" y="20" width="1212" height="480" filterUnits="userSpaceOnUse" color-interpolation-filters="sRGB">
      <feDropShadow dx="0" dy="24" stdDeviation="24" flood-color="#1E3A8A" flood-opacity="0.12"/>
    </filter>
    <filter id="soft" x="620" y="84" width="486" height="374" filterUnits="userSpaceOnUse" color-interpolation-filters="sRGB">
      <feDropShadow dx="0" dy="18" stdDeviation="20" flood-color="#0F172A" flood-opacity="0.1"/>
    </filter>
  </defs>

  <rect width="1280" height="520" rx="36" fill="url(#bg)"/>
  <g filter="url(#shadow)">
    <rect x="70" y="58" width="1140" height="404" rx="32" fill="#FFFFFF"/>
    <rect x="70.5" y="58.5" width="1139" height="403" rx="31.5" stroke="#D8E4F0"/>
  </g>

  <circle cx="106" cy="102" r="8" fill="#FF6B6B"/>
  <circle cx="132" cy="102" r="8" fill="#FBBF24"/>
  <circle cx="158" cy="102" r="8" fill="#22C55E"/>

  <g>
    <rect x="116" y="142" width="86" height="34" rx="17" fill="#EAF3FF"/>
    <text x="159" y="164" text-anchor="middle" font-family="Inter, Arial, sans-serif" font-size="15" font-weight="700" fill="#0B63CE">AI CRM</text>
    <text x="116" y="224" font-family="'PingFang SC','Microsoft YaHei',Arial,sans-serif" font-size="50" font-weight="800" fill="#132033">悟空 AICRM</text>
    <text x="116" y="276" font-family="'PingFang SC','Microsoft YaHei',Arial,sans-serif" font-size="28" font-weight="700" fill="#1D4ED8">开源版 Salesforce + ChatGPT</text>
    <text x="116" y="325" font-family="'PingFang SC','Microsoft YaHei',Arial,sans-serif" font-size="22" fill="#526173">用对话完成客户管理、知识查询和任务执行。</text>
    <text x="116" y="363" font-family="'PingFang SC','Microsoft YaHei',Arial,sans-serif" font-size="22" fill="#526173">把客户上下文、知识库和任务日程一次打通。</text>

    <rect x="116" y="398" width="132" height="42" rx="21" fill="url(#primary)"/>
    <text x="182" y="425" text-anchor="middle" font-family="'PingFang SC','Microsoft YaHei',Arial,sans-serif" font-size="17" font-weight="700" fill="#FFFFFF">在线体验</text>
    <rect x="264" y="398" width="132" height="42" rx="21" fill="#EEF6FF"/>
    <text x="330" y="425" text-anchor="middle" font-family="'PingFang SC','Microsoft YaHei',Arial,sans-serif" font-size="17" font-weight="700" fill="#1D4ED8">快速部署</text>
  </g>

  <g filter="url(#soft)">
    <rect x="716" y="104" width="320" height="322" rx="24" fill="url(#card)"/>
    <rect x="716.5" y="104.5" width="319" height="321" rx="23.5" stroke="#E2E8F0"/>
    <rect x="744" y="136" width="142" height="16" rx="8" fill="#CBD5E1"/>
    <rect x="744" y="168" width="238" height="14" rx="7" fill="#E2E8F0"/>

    <rect x="744" y="216" width="120" height="70" rx="16" fill="#EFF6FF"/>
    <rect x="884" y="216" width="120" height="70" rx="16" fill="#F0FDFA"/>
    <rect x="744" y="308" width="120" height="70" rx="16" fill="#FFF7ED"/>
    <rect x="884" y="308" width="120" height="70" rx="16" fill="#F8FAFC"/>

    <circle cx="768" cy="251" r="13" fill="#1677FF"/>
    <circle cx="908" cy="251" r="13" fill="#14B8A6"/>
    <circle cx="768" cy="343" r="13" fill="#F97316"/>
    <circle cx="908" cy="343" r="13" fill="#64748B"/>

    <text x="790" y="247" font-family="'PingFang SC','Microsoft YaHei',Arial,sans-serif" font-size="15" font-weight="700" fill="#1E293B">客户摘要</text>
    <text x="930" y="247" font-family="'PingFang SC','Microsoft YaHei',Arial,sans-serif" font-size="15" font-weight="700" fill="#1E293B">知识问答</text>
    <text x="790" y="339" font-family="'PingFang SC','Microsoft YaHei',Arial,sans-serif" font-size="15" font-weight="700" fill="#1E293B">任务生成</text>
    <text x="930" y="339" font-family="'PingFang SC','Microsoft YaHei',Arial,sans-serif" font-size="15" font-weight="700" fill="#1E293B">团队协同</text>

    <rect x="768" y="262" width="62" height="8" rx="4" fill="#BFDBFE"/>
    <rect x="908" y="262" width="62" height="8" rx="4" fill="#A7F3D0"/>
    <rect x="768" y="354" width="62" height="8" rx="4" fill="#FED7AA"/>
    <rect x="908" y="354" width="62" height="8" rx="4" fill="#CBD5E1"/>
  </g>

  <path d="M1108 122C1150 169 1164 225 1148 290C1134 347 1098 383 1054 402" stroke="#D7E9FF" stroke-width="12" stroke-linecap="round"/>
  <path d="M613 112C588 160 578 210 590 263C603 321 633 362 680 388" stroke="#E7F0FF" stroke-width="10" stroke-linecap="round"/>
</svg>
